<?xml version="1.0" standalone="no"?><!DOCTYPE svg PUBLIC "-//W3C//DTD SVG 1.1//EN" "http://www.w3.org/Graphics/SVG/1.1/DTD/svg11.dtd"><svg t="1576762706392" class="icon" viewBox="0 0 1024 1024" version="1.1" xmlns="http://www.w3.org/2000/svg" p-id="4363" xmlns:xlink="http://www.w3.org/1999/xlink" width="200" height="200"><defs><style type="text/css"></style></defs><path d="M846.848 177.152c-71.68-71.168-165.888-110.592-266.24-110.592s-195.072 38.912-266.24 110.08c-71.168 71.168-110.08 165.376-110.08 266.24 0 89.6 31.232 174.592 88.576 242.688l-64.512 64.512-108.032-108.032c-11.776-11.776-31.744-11.776-44.544 1.024-12.288 12.288-12.8 32.256-1.024 44.544l108.032 108.032-97.28 97.792c-12.288 12.288-12.288 32.768 0 45.056 12.288 12.288 32.768 12.288 45.056 0l97.792-97.792 108.032 108.032c11.776 11.776 31.744 11.776 44.544-1.024 12.288-12.288 12.8-32.256 1.024-44.544l-108.032-108.032L337.92 731.136c67.584 57.344 152.576 88.576 242.688 88.576 100.352 0 195.072-38.912 266.24-110.08s110.08-165.888 110.08-266.24c0-100.864-38.912-195.584-110.08-266.24z m-266.24 578.56c-172.032 0-312.32-140.288-312.32-312.32 0-172.544 140.288-312.32 312.32-312.32s312.32 140.288 312.32 312.32-140.288 312.32-312.32 312.32z" p-id="4364" fill="#d4237a"></path></svg>