<?xml version="1.0" standalone="no"?><!DOCTYPE svg PUBLIC "-//W3C//DTD SVG 1.1//EN" "http://www.w3.org/Graphics/SVG/1.1/DTD/svg11.dtd"><svg t="1576678175933" class="icon" viewBox="0 0 1024 1024" version="1.1" xmlns="http://www.w3.org/2000/svg" p-id="6503" xmlns:xlink="http://www.w3.org/1999/xlink" width="200" height="200"><defs><style type="text/css"></style></defs><path d="M512 600.37381268a44.18690634 44.18690634 0 0 1-23.72836869-6.89315739L-18.24287605 271.13717356v594.66738548A88.37381268 88.37381268 0 0 0 70.21931044 953.86906337h883.56137912A88.37381268 88.37381268 0 0 0 1042.24287605 865.80455904V271.57904261l-506.51450736 321.90161268A44.31946705 44.31946705 0 0 1 512 600.37381268" p-id="6504" fill="#ffffff"></path><path d="M953.78068956 70.13093663H70.21931044A88.37381268 88.37381268 0 0 0-18.24287605 158.23962785v6.76059668l530.24287605 338.8251978 530.24287605-336.96934773v-8.61644675A88.37381268 88.37381268 0 0 0 953.78068956 70.13093663" p-id="6505" fill="#ffffff"></path></svg>