<?xml version="1.0" standalone="no"?><!DOCTYPE svg PUBLIC "-//W3C//DTD SVG 1.1//EN" "http://www.w3.org/Graphics/SVG/1.1/DTD/svg11.dtd"><svg t="1576678236223" class="icon" viewBox="0 0 1184 1024" version="1.1" xmlns="http://www.w3.org/2000/svg" p-id="8314" xmlns:xlink="http://www.w3.org/1999/xlink" width="231.25" height="200"><defs><style type="text/css"></style></defs><path d="M900.539 406.695H639.092c-29.05 0-50.837 29.05-50.837 50.837 0 29.05 29.05 50.837 50.837 50.837H900.54c29.05 0 50.837-29.05 50.837-50.837 0-21.787-29.05-50.837-50.837-50.837zM762.553 595.518H631.83c-29.05 0-50.837 29.05-50.837 50.837 0 29.05 29.05 50.836 50.837 50.836h130.723c29.05 0 50.837-29.05 50.837-50.836 7.262-21.788-21.787-50.837-50.837-50.837z" p-id="8315" fill="#ffffff"></path><path d="M951.376 72.624L718.979 36.312l-50.837 159.773H508.369L457.532 36.312 225.135 72.624c-137.986 21.787-210.61 58.1-210.61 232.397v508.37s0 210.609 210.61 210.609H965.9c210.61 0 210.61-210.61 210.61-210.61V305.021c-14.525-181.56-116.199-210.61-225.135-232.397z m0 842.44H210.61c-108.936 0-108.936-108.936-108.936-108.936V377.645s0-79.886 79.886-79.886h791.603c87.15 0 79.887 79.886 79.887 79.886v428.483c0 7.262 14.524 108.936-101.674 108.936z" p-id="8316" fill="#ffffff"></path><path d="M210.61 406.695h290.496v399.433H210.61z m399.433-268.71s29.05-87.148 29.05-108.935c0-14.525-7.263-29.05-29.05-29.05h-50.837c-14.525 0-29.05 7.262-29.05 29.05 0 14.524 29.05 108.936 29.05 108.936h50.837z" p-id="8317" fill="#ffffff"></path></svg>