<?xml version="1.0" standalone="no"?><!DOCTYPE svg PUBLIC "-//W3C//DTD SVG 1.1//EN" "http://www.w3.org/Graphics/SVG/1.1/DTD/svg11.dtd"><svg t="1576678075692" class="icon" viewBox="0 0 1024 1024" version="1.1" xmlns="http://www.w3.org/2000/svg" p-id="4266" xmlns:xlink="http://www.w3.org/1999/xlink" width="200" height="200"><defs><style type="text/css"></style></defs><path d="M864.64 425.728h-64.768V268.736c0-147.712-129.472-267.904-288.448-267.904-159.04 0-288.448 120.192-288.448 267.904v156.992H159.36c-52.096 0-94.464 39.232-94.464 87.744v421.76c0 48.448 42.368 87.68 94.464 87.68h705.28c52.096 0 94.464-39.232 94.464-87.68v-421.76c0-48.512-42.368-87.744-94.464-87.744z m-521.152-156.8c0-86.08 75.392-156.096 167.936-156.096 92.544 0 167.936 70.016 167.936 156.096v156.992H343.488V268.928z m230.336 552.64c0 33.28-29.184 60.352-64.96 60.352-35.904 0-64.896-27.072-64.896-60.352V638.976c0-33.28 29.184-60.352 64.896-60.352 35.968 0 64.96 27.072 64.96 60.352v182.592z" p-id="4267" fill="#ffffff"></path></svg>