<?xml version="1.0" standalone="no"?><!DOCTYPE svg PUBLIC "-//W3C//DTD SVG 1.1//EN" "http://www.w3.org/Graphics/SVG/1.1/DTD/svg11.dtd"><svg t="1576747884513" class="icon" viewBox="0 0 1024 1024" version="1.1" xmlns="http://www.w3.org/2000/svg" p-id="2038" xmlns:xlink="http://www.w3.org/1999/xlink" width="200" height="200"><defs><style type="text/css"></style></defs><path d="M512 0C229.330071 0 0.104383 229.225688 0.104383 511.895617S229.330071 1024 512 1024s511.895617-229.225688 511.895617-511.895617S794.72212 0 512 0z m239.990214 639.451988c-22.181448 2.100714-25.860958-29.814475-40.761672-39.365546-6.289093 30.988787-21.202854 53.118043-42.39266 69.414883 19.806728 15.135576 56.106014 20.028542 54.279307 52.883181-2.100714 39.83527-74.542712 50.547604-126.956168 46.82895-38.439144-2.792253-61.325178-16.766565-83.16738-31.680327-12.108461 4.423242-24.686646 15.840163-37.734556 21.202855-53.57472 22.181448-170.52314 13.282773-175.181244-34.707442-3.261978-34.015902 35.229358-40.070133 55.910296-54.279307-21.437717-15.370438-37.499694-35.868705-42.392661-68.018756-15.657492 4.188379-19.102141 38.439144-40.761672 37.734557-23.068705-0.704587-26.552497-48.459939-24.229969-78.509277 3.49684-46.124363 37.043017-81.993068 54.279307-105.76636-0.926402-26.095821 0.926402-49.582059 12.10846-63.360653 0.469725-67.327217 23.760245-106.927625 57.306422-140.473802 34.015902-34.015902 85.724771-59.863812 137.446688-60.333537 61.729664-0.704587 110.189602 29.357798 140.473802 58.937411 27.022222 26.552497 44.728236 54.801223 52.88318 96.671967 2.609582 12.578186 0.926402 27.948624 4.423242 43.788787 1.396126 6.523955 8.389806 13.517635 10.438328 22.59898 2.792253 11.651784-1.396126 26.095821 1.396126 39.365546 2.100714 10.020795 11.416922 17.471152 16.544751 24.229969 14.913761 19.102141 34.707441 50.547604 37.734556 80.140265 4.423242 32.619776-0.469725 80.897044-21.659531 82.697656z" p-id="2039" fill="#01cd9a"></path></svg>