<?xml version="1.0" standalone="no"?><!DOCTYPE svg PUBLIC "-//W3C//DTD SVG 1.1//EN" "http://www.w3.org/Graphics/SVG/1.1/DTD/svg11.dtd"><svg t="1576678151501" class="icon" viewBox="0 0 1024 1024" version="1.1" xmlns="http://www.w3.org/2000/svg" p-id="5683" xmlns:xlink="http://www.w3.org/1999/xlink" width="200" height="200"><defs><style type="text/css"></style></defs><path d="M352.178503 178.448228c23.206538 0 46.191018 3.2623 68.478627 9.705036-28.350698 16.917298-52.194756 39.788192-69.488631 66.723657-94.13803 0.542352-170.544211 77.387531-170.544211 171.761945 0 94.697779 76.959789 171.746596 171.553191 171.746596 94.595448 0 171.548074-77.048817 171.548074-171.746596 0-29.438473-7.590885-58.408271-21.992897-84.009346 19.618826-20.834514 43.038212-32.263821 66.2601-32.263821 1.032516 0 2.069125 0.022513 3.105734 0.067538 18.952654 35.635615 28.955472 75.758428 28.955472 116.205629 0 58.871829-21.046339 115.985618-59.270918 160.824849-37.792745 44.330648-89.984431 74.089415-146.958026 83.785242l-4.29277 0.728594 0.467651 4.329609c0.045025 0.448208 0.106424 0.8913 0.165776 1.330298 0.095167 0.696872 0.181125 1.299599 0.181125 1.819438l0 74.695213 0 4.631484 4.63353 0L512.669754 758.783593c21.042245 0 38.159088 17.144472 38.159088 38.220487 0 21.070898-17.116843 38.213323-38.159088 38.213323L394.980331 835.217403l-4.63353 0 0 4.63353 0 83.333964c0 21.065781-17.124006 38.20923-38.169321 38.20923-21.043269 0-38.164205-17.143449-38.164205-38.20923l0-83.333964 0-4.63353-4.63353 0L191.684182 835.217403c-21.041222 0-38.154995-17.142425-38.154995-38.213323 0-21.076014 17.114796-38.220487 38.154995-38.220487l117.687376 0L314.005089 758.783593l0-4.631484L314.005089 679.45792c0-0.466628 0.072655-1.019213 0.163729-1.657756 0.071631-0.51984 0.140193-1.044796 0.190335-1.578961l0.37453-4.256954-4.211928-0.714268c-56.972573-9.695826-109.158119-39.454594-146.957003-83.785242-38.223556-44.839231-59.270918-101.95302-59.270918-160.824849C104.291786 289.783942 215.496517 178.448228 352.178503 178.448228" p-id="5684" fill="#ffffff"></path><path d="M894.641305 62.605873c13.818727 0 25.065885 11.166317 25.065885 24.89397l0 177.295985c0 13.729699-11.247158 24.898063-25.065885 24.898063-13.81975 0-25.061792-11.168364-25.061792-24.898063L869.579513 176.421059l0-11.399631-7.950066 8.16496L749.492484 288.335964l-2.880607 2.963495 2.616594 3.203972c35.45756 43.394323 54.986335 98.018408 54.986335 153.807015 0 134.705981-110.210078 244.299005-245.685585 244.299005-7.898901 0-15.842827-0.384763-23.738657-1.139963 23.838941-19.183921 44.277436-46.703695 57.20691-77.30669 79.320557-15.793708 136.62468-85.139076 136.62468-165.852352 0-93.291756-76.301803-169.1914-170.092933-169.1914-93.792153 0-170.101119 75.899644-170.101119 169.1914 0 30.878265 8.476045 61.000306 24.542976 87.379093-15.397688 12.703323-34.861996 19.390629-56.548924 19.390629-6.504134 0-13.124925-0.62217-19.711947-1.855254-15.83771-32.94125-23.859407-68.223824-23.859407-104.913445 0-134.712121 110.214171-244.308215 245.678422-244.308215 45.191248 0 89.418542 12.379958 127.891785 35.799344l3.154853 1.918699 2.574638-2.642177 115.804493-118.810966 7.66968-7.868201-10.985192 0-77.958536 0c-13.81668 0-25.055652-11.167341-25.055652-24.898063 0-13.727653 11.238972-24.89397 25.055652-24.89397L894.641305 62.60792" p-id="5685" fill="#ffffff"></path></svg>