<?xml version="1.0" standalone="no"?><!DOCTYPE svg PUBLIC "-//W3C//DTD SVG 1.1//EN" "http://www.w3.org/Graphics/SVG/1.1/DTD/svg11.dtd"><svg t="1576678011954" class="icon" viewBox="0 0 1024 1024" version="1.1" xmlns="http://www.w3.org/2000/svg" p-id="3490" xmlns:xlink="http://www.w3.org/1999/xlink" width="200" height="200"><defs><style type="text/css"></style></defs><path d="M819.2 680.228571c-7.314286-7.314286-21.942857-7.314286-36.571429 0-7.314286 7.314286-7.314286 21.942857 0 36.571429 73.142857 73.142857 117.028571 175.542857 117.028572 285.257143 0 14.628571 7.314286 21.942857 21.942857 21.942857 14.628571 0 21.942857-14.628571 21.942857-21.942857 7.314286-124.342857-36.571429-234.057143-124.342857-321.828572zM512 0C351.085714 0 219.428571 131.657143 219.428571 299.885714c0 117.028571 65.828571 219.428571 160.914286 270.628572-65.828571 21.942857-124.342857 58.514286-175.542857 109.714285C117.028571 768 73.142857 877.714286 73.142857 1002.057143c0 7.314286 7.314286 21.942857 21.942857 21.942857s21.942857-14.628571 21.942857-21.942857c0-109.714286 43.885714-204.8 117.028572-285.257143 73.142857-73.142857 168.228571-117.028571 263.314286-117.028571h7.314285c160.914286 0 292.571429-131.657143 292.571429-299.885715C804.571429 131.657143 672.914286 0 512 0z m7.314286 548.571429c-7.314286 0-7.314286 0 0 0h-14.628572a248.685714 248.685714 0 0 1-234.057143-248.685715C270.628571 160.914286 380.342857 51.2 512 51.2c131.657143 0 241.371429 109.714286 241.371429 248.685714S650.971429 548.571429 519.314286 548.571429z" p-id="3491" fill="#ffffff"></path></svg>